{"title":"A Million Ways to Die in the West 2014 CH SUB NEW SOURCE VODRip ","uid":10357821,"size":1214628078,"categoryP":"video","categoryS":"movies","magnet":"?xt=urn:btih:60358bf9dc4b7ddf083e332fecf24dfe92394b47&amp;dn=A+Million+Ways+to+Die+in+the+West+2014+CH+SUB+NEW+SOURCE+VODRip+&amp;tr=udp%3A%2F%2Ftracker.openbittorrent.com%3A80&amp;tr=udp%3A%2F%2Fopen.demonii.com%3A1337&amp;tr=udp%3A%2F%2Ftracker.coppersurfer.tk%3A6969&amp;tr=udp%3A%2F%2Fexodus.desync.com%3A6969","seeders":2,"leechers":0,"uploader":"xxxlavalxxx","files":-1,"time":1402768018,"description":"[IMG]http://i.imgur.com/kwNTpKt.jpg[/IMG]\n\n &lt;a href=&quot;\nhttp://www.imdb.com/title/tt2557490/&quot; rel=&quot;nofollow&quot; target=&quot;_NEW&quot;&gt;\nhttp://www.imdb.com/title/tt2557490/&lt;/a&gt;\n\n\nAs a cowardly farmer begins to fall for the mysterious new woman in town, he must put his new-found courage to the test when her husband, a notorious gun-slinger, announces his arrival.\n\nDirector: Seth MacFarlane\nWriters: Seth MacFarlane, Alec Sulkin\nStars: Seth MacFarlane, Charlize Theron, Liam Neeson\nGenres: Comedy | Western\nCountry: USA\nLanguage: English\n\n\nSOURCE: A Friend \n\nNotes: New 576p VOD Source, this is NOT from the LETV file. This is much higher Quality Source with studio audio. This also has english subs for the foreign parts. Enjoy.\n\nGeneral\nComplete name                            : A Million Ways to Die in the West 2014 CH SUB NEW SOURCE VODRip x264 AC3-R33M.mkv\nFormat                                   : Matroska\nFormat version                           : Version 2\nFile size                                : 1.11 GiB\nDuration                                 : 1h 55mn\nOverall bit rate mode                    : Variable\nOverall bit rate                         : 1 382 Kbps\nEncoded date                             : UTC 2014-06-14 14:37:23\nWriting application                      : mkvmerge v6.8.0 ('Theme for Great Cities') 32bit built on Mar  2 2014 21:27:07\nWriting library                          : libebml v1.3.0 + libmatroska v1.4.1\n\nVideo\nID                                       : 1\nFormat                                   : AVC\nFormat/Info                              : Advanced Video Codec\nFormat profile                           : &lt;a class=&quot;__cf_email__&quot; href=&quot;/cdn-cgi/l/email-protection&quot; data-cfemail=&quot;135b7a747b535f273d22&quot;&gt;[email&amp;#160;protected]&lt;/a&gt;&lt;script cf-hash='f9e31' type=&quot;text/javascript&quot;&gt;\n/* &lt;![CDATA[ */!function(){try{var t=&quot;currentScript&quot;in document?document.currentScript:function(){for(var t=document.getElementsByTagName(&quot;script&quot;),e=t.length;e--;)if(t[e].getAttribute(&quot;cf-hash&quot;))return t[e]}();if(t&amp;&amp;t.previousSibling){var e,r,n,i,c=t.previousSibling,a=c.getAttribute(&quot;data-cfemail&quot;);if(a){for(e=&quot;&quot;,r=parseInt(a.substr(0,2),16),n=2;a.length-n;n+=2)i=parseInt(a.substr(n,2),16)^r,e+=String.fromCharCode(i);e=document.createTextNode(e),c.parentNode.replaceChild(e,c)}}}catch(u){}}();/* ]]&gt; */&lt;/script&gt;\nFormat settings, CABAC                   : Yes\nFormat settings, ReFrames                : 3 frames\nCodec ID                                 : V_MPEG4/ISO/AVC\nDuration                                 : 1h 55mn\nBit rate mode                            : Variable\nBit rate                                 : 1 099 Kbps\nMaximum bit rate                         : 40.0 Mbps\nWidth                                    : 720 pixels\nHeight                                   : 304 pixels\nDisplay aspect ratio                     : 2.35:1\nFrame rate mode                          : Constant\nFrame rate                               : 23.976 fps\nColor space                              : YUV\nChroma subsampling                       : 4:2:0\nBit depth                                : 8 bits\nScan type                                : Progressive\nBits/(Pixel*Frame)                       : 0.209\nStream size                              : 905 MiB (79%)\nDefault                                  : Yes\nForced                                   : No\nColor primaries                          : BT.709\nTransfer characteristics                 : BT.709\nMatrix coefficients                      : BT.709\n\nAudio\nID                                       : 2\nFormat                                   : AC-3\nFormat/Info                              : Audio Coding 3\nMode extension                           : CM (complete main)\nFormat settings, Endianness              : Big\nCodec ID                                 : A_AC3\nDuration                                 : 1h 55mn\nBit rate mode                            : Constant\nBit rate                                 : 256 Kbps\nChannel(s)                               : 2 channels\nChannel positions                        : Front: L R\nSampling rate                            : 48.0 KHz\nBit depth                                : 16 bits\nCompression mode                         : Lossy\nStream size                              : 211 MiB (19%)\nLanguage                                 : English\nDefault                                  : Yes\nForced                                   : No\n\n\nscreens\n &lt;a href=&quot;\nhttp://i.imgur.com/Mp2pee4.jpg&quot; rel=&quot;nofollow&quot; target=&quot;_NEW&quot;&gt;\nhttp://i.imgur.com/Mp2pee4.jpg&lt;/a&gt; &lt;a href=&quot;\nhttp://i.imgur.com/52oc3Kv.jpg&quot; rel=&quot;nofollow&quot; target=&quot;_NEW&quot;&gt;\nhttp://i.imgur.com/52oc3Kv.jpg&lt;/a&gt; &lt;a href=&quot;\nhttp://i.imgur.com/BR4SmvB.jpg&quot; rel=&quot;nofollow&quot; target=&quot;_NEW&quot;&gt;\nhttp://i.imgur.com/BR4SmvB.jpg&lt;/a&gt; &lt;a href=&quot;\nhttp://i.imgur.com/JdSc3R8.jpg&quot; rel=&quot;nofollow&quot; target=&quot;_NEW&quot;&gt;\nhttp://i.imgur.com/JdSc3R8.jpg&lt;/a&gt; &lt;a href=&quot;\nhttp://i.imgur.com/P2RnG8j.jpg&quot; rel=&quot;nofollow&quot; target=&quot;_NEW&quot;&gt;\nhttp://i.imgur.com/P2RnG8j.jpg&lt;/a&gt; &lt;a href=&quot;\nhttp://i.imgur.com/RgXeM8D.jpg&quot; rel=&quot;nofollow&quot; target=&quot;_NEW&quot;&gt;\nhttp://i.imgur.com/RgXeM8D.jpg&lt;/a&gt; &lt;a href=&quot;\nhttp://i.imgur.com/0zKG3O5.jpg&quot; rel=&quot;nofollow&quot; target=&quot;_NEW&quot;&gt;\nhttp://i.imgur.com/0zKG3O5.jpg&lt;/a&gt; &lt;a href=&quot;\nhttp://i.imgur.com/4LkSLGu.jpg&quot; rel=&quot;nofollow&quot; target=&quot;_NEW&quot;&gt;\nhttp://i.imgur.com/4LkSLGu.jpg&lt;/a&gt; &lt;a href=&quot;\nhttp://i.imgur.com/KQO7F2l.jpg&quot; rel=&quot;nofollow&quot; target=&quot;_NEW&quot;&gt;\nhttp://i.imgur.com/KQO7F2l.jpg&lt;/a&gt;","torrent":{"xt":"urn:btih:60358bf9dc4b7ddf083e332fecf24dfe92394b47","amp;dn":"A+Million+Ways+to+Die+in+the+West+2014+CH+SUB+NEW+SOURCE+VODRip+","amp;tr":["udp%3A%2F%2Ftracker.openbittorrent.com%3A80","udp%3A%2F%2Fopen.demonii.com%3A1337","udp%3A%2F%2Ftracker.coppersurfer.tk%3A6969","udp%3A%2F%2Fexodus.desync.com%3A6969"],"infoHash":"60358bf9dc4b7ddf083e332fecf24dfe92394b47","infoHashBuffer":{"type":"Buffer","data":[96,53,139,249,220,75,125,223,8,62,51,47,236,242,77,254,146,57,75,71]},"announce":[],"urlList":[]}}